<svg height="512" viewBox="0 0 128 128" width="512" xmlns="http://www.w3.org/2000/svg"><g id="Circle_Grid" data-name="Circle Grid"><circle cx="64" cy="64" fill="#2cbfae" r="64"/></g><g id="icon"><path d="m105 59.019v45.819h-81.982l29.24-23.089-29.258-22.73 41-35.857z" fill="#eab54e"/><path d="m30.908 31.632h65.735v54.379h-65.735z" fill="#eeefee"/><path d="m104.982 104.838h-81.964l29.239-23.089h23.486z" fill="#eab54e"/><g fill="#dbd8dd"><path d="m35.625 36.287h56.75v2.071h-56.75z"/><path d="m35.625 43.912h56.75v2.071h-56.75z"/><path d="m35.625 51.537h56.75v2.071h-56.75z"/><path d="m35.625 59.162h56.75v2.071h-56.75z"/><path d="m35.625 66.787h56.75v2.071h-56.75z"/><path d="m49.812 74.412h28.375v2.071h-28.375z"/></g><path d="m52.258 81.749-29.24 23.089h-.018v-45.819z" fill="#f6c863"/><path d="m75.742 81.749 29.24 23.089h.018v-45.819z" fill="#f6c863"/></g></svg>